<svg width="22" height="22" viewBox="0 0 22 22" fill="none" xmlns="http://www.w3.org/2000/svg">
<path d="M20.6887 12.6261C20.4718 12.5716 20.2549 12.6261 20.0651 12.7622C19.3601 13.3613 18.5466 13.8514 17.6518 14.1781C16.8113 14.5049 15.8894 14.6682 14.9132 14.6682C12.7169 14.6682 10.7104 13.7697 9.27331 12.3266C7.83622 10.8835 6.94142 8.86855 6.94142 6.66303C6.94142 5.73726 7.10411 4.83872 7.37526 4.02186C7.67353 3.15055 8.10737 2.36092 8.67678 1.68021C8.92082 1.38069 8.86659 0.945037 8.56832 0.69998C8.37852 0.563837 8.1616 0.50938 7.94468 0.563837C5.63991 1.19009 3.6334 2.57875 2.19631 4.43029C0.813448 6.25461 0 8.51458 0 10.9651C0 13.9331 1.19306 16.6287 3.14533 18.5891C5.09761 20.5496 7.75487 21.7477 10.7375 21.7477C13.2321 21.7477 15.5369 20.8763 17.3807 19.4332C19.2516 17.9629 20.6074 15.8663 21.1768 13.4702C21.2852 13.089 21.0683 12.7078 20.6887 12.6261Z" fill="#1A202C"/>
</svg>
