<svg width="28" height="26" viewBox="0 0 28 26" fill="none" xmlns="http://www.w3.org/2000/svg">
<path d="M13.6332 6.80469C9.86787 6.80469 6.80469 9.86847 6.80469 13.6338C6.80469 17.399 9.86787 20.4628 13.6332 20.4628C17.3978 20.4628 20.4616 17.3997 20.4616 13.6338C20.4616 9.86787 17.3978 6.80469 13.6332 6.80469Z" fill="#805AD5"/>
<path d="M13.6214 4.79581C12.8855 4.79581 12.2891 4.19935 12.2891 3.46404V1.33237C12.2891 0.596457 12.8855 0 13.6214 0C14.3573 0 14.9538 0.596457 14.9538 1.33237V3.46404C14.9538 4.19935 14.3567 4.79581 13.6214 4.79581Z" fill="#805AD5"/>
<path d="M13.6214 26.0009C12.8855 26.0009 12.2891 25.4044 12.2891 24.6691V22.5374C12.2891 21.8015 12.8855 21.2051 13.6214 21.2051C14.3573 21.2051 14.9538 21.8015 14.9538 22.5374V24.6691C14.9538 25.4044 14.3567 26.0009 13.6214 26.0009Z" fill="#805AD5"/>
<path d="M19.8742 7.38495C19.3544 6.86456 19.3544 6.02119 19.8742 5.5008L21.3817 3.99336C21.9014 3.47357 22.7454 3.47357 23.2658 3.99336C23.7862 4.51375 23.7862 5.35772 23.2658 5.87751L21.7584 7.38495C21.2386 7.90534 20.3952 7.90534 19.8742 7.38495Z" fill="#805AD5"/>
<path d="M7.37541 19.881C6.85502 19.36 6.01165 19.36 5.49126 19.881L3.98382 21.3878C3.46403 21.9076 3.46343 22.7522 3.98382 23.272C4.50421 23.7918 5.34818 23.7918 5.86797 23.272L7.37541 21.7639C7.8958 21.2441 7.8958 20.4002 7.37541 19.881Z" fill="#805AD5"/>
<path d="M22.4766 13.6332C22.4766 12.8972 23.073 12.3008 23.8089 12.3008H25.9406C26.6765 12.3008 27.273 12.8972 27.273 13.6332C27.273 14.3691 26.6765 14.9649 25.9406 14.9649H23.8089C23.073 14.9649 22.4766 14.3691 22.4766 13.6332Z" fill="#805AD5"/>
<path d="M4.79581 13.6332C4.79581 12.8972 4.19935 12.3008 3.46344 12.3008H1.33237C0.596457 12.3008 0 12.8972 0 13.6332C0 14.3691 0.596457 14.9649 1.33237 14.9649H3.46404C4.19935 14.9649 4.79581 14.3691 4.79581 13.6332Z" fill="#805AD5"/>
<path d="M19.8747 19.8801C20.3951 19.3603 21.239 19.3603 21.7588 19.8801L23.2663 21.3875C23.7867 21.9067 23.7867 22.7513 23.2663 23.2711C22.7459 23.7909 21.9025 23.7909 21.3821 23.2711L19.8747 21.7636C19.3543 21.2432 19.3543 20.3999 19.8747 19.8801Z" fill="#805AD5"/>
<path d="M7.37564 7.3848C7.89603 6.86441 7.89603 6.02104 7.37564 5.50065L5.8682 3.99381C5.34781 3.47342 4.50443 3.47342 3.98404 3.99381C3.46365 4.5136 3.46365 5.35757 3.98404 5.87736L5.49149 7.3848C6.01188 7.90579 6.85525 7.90579 7.37564 7.3848Z" fill="#805AD5"/>
</svg>
